<?xml version="1.0" standalone="no"?>
<!DOCTYPE svg PUBLIC "-//W3C//DTD SVG 20010904//EN"
 "http://www.w3.org/TR/2001/REC-SVG-20010904/DTD/svg10.dtd">
<svg version="1.0" xmlns="http://www.w3.org/2000/svg"
 width="512.000000pt" height="512.000000pt" viewBox="0 0 512.000000 512.000000"
 preserveAspectRatio="xMidYMid meet">
<metadata>
Created by potrace 1.16, written by Peter Selinger 2001-2019
</metadata>
<g transform="translate(0.000000,512.000000) scale(0.100000,-0.100000)"
fill="#000000" stroke="none">
<path d="M359 5101 c-140 -45 -252 -143 -317 -278 l-37 -78 -3 -2160 c-2
-2386 -7 -2200 60 -2328 36 -67 137 -166 206 -201 119 -60 -46 -56 2293 -56
2103 0 2138 0 2201 20 158 48 290 181 338 339 20 62 20 104 20 2195 0 2335 4
2186 -58 2300 -39 73 -132 168 -199 203 -128 68 57 63 -2307 62 -2023 0 -2144
-1 -2197 -18z m1736 -2236 c263 -693 480 -1263 484 -1267 3 -4 218 560 476
1253 259 694 472 1262 475 1264 3 2 176 5 385 6 l380 4 3 -41 3 -41 -98 -12
c-177 -21 -231 -66 -253 -207 -16 -107 -9 -2516 8 -2567 19 -56 66 -103 120
-121 35 -11 185 -36 220 -36 2 0 2 -18 0 -41 l-3 -40 -563 -2 -562 -2 0 42 c0
40 2 42 33 47 210 29 249 45 284 116 41 82 44 177 41 1425 l-3 1180 -527
-1415 -526 -1415 -39 -3 -38 -3 -552 1423 -552 1423 -1 -1200 c0 -747 4 -1226
10 -1270 14 -98 51 -169 103 -200 45 -25 133 -49 230 -60 l57 -6 0 -42 0 -42
-430 0 -430 0 0 42 c0 41 0 41 43 48 164 25 231 55 263 117 48 92 47 69 51
1283 3 728 0 1181 -6 1253 -19 212 -63 255 -283 277 l-68 7 0 41 0 42 394 0
393 0 478 -1260z"/>
</g>
</svg>
