<?xml version="1.0" standalone="no"?>
<!DOCTYPE svg PUBLIC "-//W3C//DTD SVG 20010904//EN"
 "http://www.w3.org/TR/2001/REC-SVG-20010904/DTD/svg10.dtd">
<svg version="1.0" xmlns="http://www.w3.org/2000/svg"
 width="512.000000pt" height="512.000000pt" viewBox="0 0 512.000000 512.000000"
 preserveAspectRatio="xMidYMid meet">
<metadata>
Created by potrace 1.11, written by Peter Selinger 2001-2013
</metadata>
<g transform="translate(0.000000,512.000000) scale(0.100000,-0.100000)"
fill="#000000" stroke="none">
<path d="M415 5110 c-202 -42 -367 -207 -405 -405 -8 -44 -10 -633 -8 -2180
l3 -2120 22 -59 c29 -75 57 -120 113 -180 58 -63 114 -100 197 -134 l68 -27
2110 -3 c1515 -2 2129 1 2177 8 179 30 327 154 399 335 l24 60 3 2110 c2 1514
-1 2129 -9 2177 -29 178 -159 333 -335 400 l-59 23 -2130 1 c-1172 1 -2148 -2
-2170 -6z m715 -993 c118 -1 276 0 350 3 l135 4 476 -1253 c262 -690 480
-1260 485 -1269 7 -11 138 329 479 1245 l470 1260 350 7 c193 4 365 10 383 13
l32 5 0 -45 0 -44 -74 -7 c-157 -14 -229 -57 -257 -152 -12 -41 -14 -253 -14
-1324 l0 -1275 27 -56 c39 -79 96 -106 261 -124 l57 -6 0 -46 0 -45 -32 8
c-44 10 -1014 10 -1055 0 l-33 -8 0 45 0 44 88 12 c48 6 104 16 125 22 55 15
101 60 123 121 18 51 19 99 21 1318 1 700 -2 1256 -6 1245 -8 -18 -1021 -2735
-1043 -2798 -9 -25 -15 -28 -46 -25 l-36 3 -548 1410 c-301 776 -550 1415
-552 1420 -3 6 -4 -552 -3 -1240 2 -1407 -3 -1315 77 -1395 45 -45 100 -64
232 -82 l88 -12 0 -44 0 -44 -32 8 c-44 9 -754 10 -795 0 l-33 -8 0 45 0 45
58 6 c110 13 173 37 217 80 46 47 61 88 76 208 6 53 9 514 7 1263 -3 1132 -4
1182 -22 1233 -34 94 -105 134 -262 148 l-74 7 0 44 0 44 43 -5 c23 -4 139 -7
257 -9z"/>
</g>
</svg>
